<svg xmlns="http://www.w3.org/2000/svg" version="1.1" xmlns:xlink="http://www.w3.org/1999/xlink" xmlns:svgjs="http://svgjs.dev/svgjs" width="1440" height="560" preserveAspectRatio="none" viewBox="0 0 1440 560"><g mask="url(&quot;#SvgjsMask1002&quot;)" fill="none"><rect width="1440" height="560" x="0" y="0" fill="url(&quot;#SvgjsLinearGradient1003&quot;)"></rect><path d="M1440 0L996.54 0L1440 56.18z" fill="rgba(255, 255, 255, .1)"></path><path d="M996.54 0L1440 56.18L1440 225.16L657.17 0z" fill="rgba(255, 255, 255, .075)"></path><path d="M657.1700000000001 0L1440 225.16L1440 265.84L340.3300000000001 0z" fill="rgba(255, 255, 255, .05)"></path><path d="M340.33000000000015 0L1440 265.84L1440 323.58L336.16000000000014 0z" fill="rgba(255, 255, 255, .025)"></path><path d="M0 560L716.16 560L0 341.61z" fill="rgba(0, 0, 0, .1)"></path><path d="M0 341.61L716.16 560L918.93 560L0 321.98z" fill="rgba(0, 0, 0, .075)"></path><path d="M0 321.98L918.93 560L974.41 560L0 252.07000000000002z" fill="rgba(0, 0, 0, .05)"></path><path d="M0 252.07000000000005L974.41 560L1202.04 560L0 129.57000000000005z" fill="rgba(0, 0, 0, .025)"></path></g><defs><mask id="SvgjsMask1002"><rect width="1440" height="560" fill="#ffffff"></rect></mask><linearGradient x1="15.28%" y1="-39.29%" x2="84.72%" y2="139.29%" gradientUnits="userSpaceOnUse" id="SvgjsLinearGradient1003"><stop stop-color="#0e2a47" offset="0"></stop><stop stop-color="#00459e" offset="1"></stop></linearGradient></defs></svg>