<svg xmlns="http://www.w3.org/2000/svg" version="1.1" xmlns:xlink="http://www.w3.org/1999/xlink" xmlns:svgjs="http://svgjs.com/svgjs" width="1920" height="1080" preserveAspectRatio="none" viewBox="0 0 1920 1080"><g mask="url(&quot;#SvgjsMask2381&quot;)" fill="none"><rect width="1920" height="1080" x="0" y="0" fill="url(#SvgjsLinearGradient2382)"></rect><path d="M1738.14 783.49a59.73 59.73 0 1 0 74.76-93.18z" fill="rgba(0, 56, 147, 1)"></path><path d="M622.89 826.15 a61.2 61.2 0 1 0 122.4 0 a61.2 61.2 0 1 0 -122.4 0z" fill="rgba(191, 10, 48, 1)"></path><path d="M1267.74 265.95L1288.63 265.95L1288.63 351.13L1267.74 351.13z" stroke="rgba(191, 10, 48, 1)"></path><path d="M1410.88 737.98a7.43 7.43 0 1 0 8.62 12.11z" stroke="rgba(0, 56, 147, 1)"></path><path d="M519.93 185.87 a69.28 69.28 0 1 0 138.56 0 a69.28 69.28 0 1 0 -138.56 0z" stroke="rgba(0, 56, 147, 1)"></path><path d="M1580.09 544.51L1610.94 544.51L1610.94 575.36L1580.09 575.36z" fill="rgba(255, 255, 255, 1)"></path><path d="M871.7 735.06L895.07 735.06L895.07 758.43L871.7 758.43z" stroke="rgba(255, 255, 255, 1)"></path><path d="M1452.68 997.93L1521.41 997.93L1521.41 1066.66L1452.68 1066.66z" fill="rgba(191, 10, 48, 1)"></path><path d="M1800.85 901.75L1829.41 901.75L1829.41 930.31L1800.85 930.31z" fill="rgba(0, 56, 147, 1)"></path><path d="M1479 991.53 a26.97 26.97 0 1 0 53.94 0 a26.97 26.97 0 1 0 -53.94 0z" stroke="rgba(255, 255, 255, 1)"></path><path d="M288.23 307.79 a98.51 98.51 0 1 0 197.02 0 a98.51 98.51 0 1 0 -197.02 0z" stroke="rgba(255, 255, 255, 1)"></path><path d="M1515.89 751.28a75.84 75.84 0 1 0 148.86-29.1z" stroke="rgba(0, 56, 147, 1)"></path><path d="M502.62 24.2L584.61 24.2L584.61 106.19L502.62 106.19z" fill="rgba(191, 10, 48, 1)"></path><path d="M306.13 745.61 a100.57 100.57 0 1 0 201.14 0 a100.57 100.57 0 1 0 -201.14 0z" stroke="rgba(0, 56, 147, 1)"></path><path d="M1230.1 995.36L1249.84 995.36L1249.84 1015.1L1230.1 1015.1z" fill="rgba(255, 255, 255, 1)"></path><path d="M1699.77 366.35L1715.48 366.35L1715.48 382.06L1699.77 382.06z" fill="rgba(191, 10, 48, 1)"></path><path d="M1189.98 725.63 a104.48 104.48 0 1 0 208.96 0 a104.48 104.48 0 1 0 -208.96 0z" stroke="rgba(255, 255, 255, 1)"></path><path d="M1030.8 417.44a24.87 24.87 0 1 0 26.47-42.11z" fill="rgba(0, 56, 147, 1)"></path><path d="M1546.58 331.35 a56.29 56.29 0 1 0 112.58 0 a56.29 56.29 0 1 0 -112.58 0z" stroke="rgba(255, 255, 255, 1)"></path><path d="M608.35 380.02L694.03 380.02L694.03 465.7L608.35 465.7z" stroke="rgba(0, 56, 147, 1)"></path><path d="M1647.91 377.41L1706.12 377.41L1706.12 435.62L1647.91 435.62z" fill="rgba(0, 56, 147, 1)"></path><path d="M1058.21 295.19L1102.04 295.19L1102.04 339.02L1058.21 339.02z" fill="rgba(0, 56, 147, 1)"></path><path d="M1126.51 599.17L1219.06 599.17L1219.06 691.72L1126.51 691.72z" stroke="rgba(255, 255, 255, 1)"></path></g><defs><mask id="SvgjsMask2381"><rect width="1920" height="1080" fill="#ffffff"></rect></mask><linearGradient x1="10.94%" y1="-19.44%" x2="89.06%" y2="119.44%" gradientUnits="userSpaceOnUse" id="SvgjsLinearGradient2382"><stop stop-color="#0e2a47" offset="0"></stop><stop stop-color="rgba(39, 173, 179, 1)" offset="1"></stop></linearGradient></defs></svg>