<svg xmlns="http://www.w3.org/2000/svg" version="1.1" xmlns:xlink="http://www.w3.org/1999/xlink" xmlns:svgjs="http://svgjs.com/svgjs" width="1920" height="1080" preserveAspectRatio="none" viewBox="0 0 1920 1080"><g mask="url(&quot;#SvgjsMask1065&quot;)" fill="none"><rect width="1920" height="1080" x="0" y="0" fill="rgba(31, 76, 105, 1)"></rect><path d="M0,781.469C143.716,776.474,239.737,638.982,362.069,563.39C487.168,486.089,663.101,464.451,727.212,332.107C791.371,199.664,692.713,48.679,682.531,-98.133C671.284,-260.303,767.467,-449.99,664.261,-575.586C561.462,-700.686,361.774,-665.785,200.91,-684.237C66.018,-699.71,-62.996,-688.486,-198.051,-674.499C-364.789,-657.231,-567.273,-713.009,-683.902,-592.604C-799.721,-473.035,-747.808,-273.913,-747.318,-107.448C-746.894,36.719,-748.685,183.692,-681.241,311.112C-615.834,434.684,-493.669,509.696,-378.614,589.135C-259.718,671.226,-144.395,786.488,0,781.469" fill="#1c4560"></path><path d="M1920 2015.742C2093.793 1975.0259999999998 2119.223 1720.1390000000001 2270.436 1625.289 2424.521 1528.637 2664.9700000000003 1612.405 2783.272 1474.243 2901.154 1336.571 2901.77 1120.289 2852.094 945.985 2804.617 779.399 2667.9610000000002 651.778 2522.2 558.191 2398.6059999999998 478.836 2237.053 518.949 2100.959 463.71000000000004 1941.843 399.12699999999995 1831.763 170.90099999999995 1664.571 210.09000000000003 1500.417 248.567 1486.876 484.58900000000006 1398.723 628.3109999999999 1327.0720000000001 745.1279999999999 1235.357 844.808 1194.943 975.753 1149.031 1124.515 1106.5839999999998 1281.987 1150.92 1431.2269999999999 1198.0610000000001 1589.91 1313.5410000000002 1718.429 1445.334 1818.594 1584.556 1924.405 1749.742 2055.63 1920 2015.742" fill="#225372"></path></g><defs><mask id="SvgjsMask1065"><rect width="1920" height="1080" fill="#ffffff"></rect></mask></defs></svg>